# xmcd
#
# Track frame offsets:
#	150
#	7808
#	18967
#	32454
#	47815
#	62523
#	78043
#	89294
#	99674
#	114113
#	125049
#	136461
#	145883
#	156075
#
# Disc length: 2321 seconds
#
# Revision: 1
# Processed by: cddbd v1.5.2PL0 Copyright (c) Steve Scherf et al.
# Submitted via: audiograbber 1.83.01
#
DISCID=a3090f0e
DTITLE=Fairley Sparks - Greenbrier Connection
DYEAR=2008
DGENRE=Bluegrass
TTITLE0=Seattle Slew
TTITLE1=The Kitten and the Cat
TTITLE2=Some Broken Hearts
TTITLE3=Southern Flavor
TTITLE4=Poison Love
TTITLE5=Carol Ann
TTITLE6=It'll Be Me
TTITLE7=Mt. St. Helen's Slide
TTITLE8=One More Laugh
TTITLE9=Roanoke
TTITLE10=Across the Sea Blues
TTITLE11=Nola's Joy
TTITLE12=Chasing Buck
TTITLE13=Apart For a While
EXTD=
EXTT0=
EXTT1=
EXTT2=
EXTT3=
EXTT4=
EXTT5=
EXTT6=
EXTT7=
EXTT8=
EXTT9=
EXTT10=
EXTT11=
EXTT12=
EXTT13=
PLAYORDER=
